# xmcd CD database file
#
# Track frame offsets:
#	150
#	15150
#	23144
#	28033
#	33377
#	50287
#	61138
#	89618
#	96920
#
# Disc length: 1339 seconds
#
# Revision: 0
# Processed by: cddbd v1.5.2PL0 Copyright (c) Steve Scherf et al.
# Submitted via: CDex 1.70beta2
#
DISCID=63053909
DTITLE=Vienna Artorchester - The Sound of Loiseum
DYEAR=2003
DGENRE=Jazz
TTITLE0=Sauvignon Blanc
TTITLE1=St. Laurent
TTITLE2=Riesling
TTITLE3=Grüner Veltliner
TTITLE4=Cabernet Saivignon
TTITLE5=Gelber Muskarteller
TTITLE6=Weißburgunder
TTITLE7=Zweigelt
TTITLE8=Chardonnay
EXTD=YEAR: 2003
EXTT0=
EXTT1=
EXTT2=
EXTT3=
EXTT4=
EXTT5=
EXTT6=
EXTT7=
EXTT8=
PLAYORDER=
